<?xml version="1.0" encoding="utf-8"?>
<svg xmlns="http://www.w3.org/2000/svg" viewBox="184.3369 82.9289 62.626 55" width="62.626px" height="55px"><g id="Grupo_3" data-name="Grupo 3" transform="matrix(1, 0, 0, 1, 184.34089172394408, 82.92894868446808)"><path id="Trazado_33" data-name="Trazado 33" d="M166.092,205.535h20.062v30.926a10.031,10.031,0,1,1-20.062,0Z" transform="translate(-151.658 -205.535)" fill="#80ba27"/><path id="Trazado_34" data-name="Trazado 34" d="M213.694,252.567a25.17,25.17,0,0,1-20.2-10.122,16.5,16.5,0,0,1-31.711-6.373V205.535h-8.028V236a24.536,24.536,0,0,0,24.535,24.535h37.784v-8.084c-.785.074-1.58.116-2.384.116" transform="translate(-153.759 -205.535)" fill="#00acc9"/><path id="Trazado_35" data-name="Trazado 35" d="M195.315,205.535h-7.656v6.83a25.327,25.327,0,0,1,7.656-6.83" transform="translate(-147.818 -205.535)" fill="#00acc9"/><path id="Trazado_36" data-name="Trazado 36" d="M210.138,239.852a13.1,13.1,0,1,1,0-25.768V207.99a19.131,19.131,0,1,0,0,37.956Z" transform="translate(-147.636 -205.143)" fill="#80ba27"/><path id="Trazado_37" data-name="Trazado 37" d="M208.732,230.055a5.086,5.086,0,1,1,0-8.985v-4.681a9.476,9.476,0,1,0,0,18.349Z" transform="translate(-146.198 -203.737)" fill="#cad400"/><path id="Trazado_38" data-name="Trazado 38" d="M207.775,224.539a2.448,2.448,0,1,1-2.448-2.448,2.449,2.449,0,0,1,2.448,2.448" transform="translate(-145.153 -202.715)" fill="#00acc9"/></g></svg>